<?xml version="1.0" standalone="no"?>
<!DOCTYPE svg PUBLIC "-//W3C//DTD SVG 20010904//EN"
 "http://www.w3.org/TR/2001/REC-SVG-20010904/DTD/svg10.dtd">
<svg version="1.0" xmlns="http://www.w3.org/2000/svg"
 width="260.000000pt" height="260.000000pt" viewBox="0 0 260.000000 260.000000"
 preserveAspectRatio="xMidYMid meet">
<metadata>
Created by potrace 1.14, written by Peter Selinger 2001-2017
</metadata>
<g transform="translate(0.000000,260.000000) scale(0.100000,-0.100000)"
fill="#000000" stroke="none">
<path d="M0 1300 l0 -1300 1300 0 1300 0 0 1300 0 1300 -1300 0 -1300 0 0
-1300z m1632 910 c251 -49 401 -189 439 -413 14 -88 6 -289 -15 -365 -25 -91
-82 -199 -135 -255 -47 -49 -49 -53 -36 -77 8 -14 14 -28 15 -32 0 -5 -32 -8
-71 -8 l-70 0 29 -42 c16 -24 46 -68 66 -99 42 -65 67 -79 141 -79 42 0 56 -4
63 -17 12 -25 -16 -405 -31 -420 -29 -30 -283 -44 -389 -22 -73 15 -161 64
-208 115 -43 47 -92 141 -141 272 -33 89 -68 138 -107 153 -14 5 -26 8 -27 7
-2 -2 -17 -118 -35 -258 -18 -140 -37 -261 -42 -267 -8 -10 -76 -13 -280 -13
-235 0 -269 2 -275 16 -6 17 205 1764 219 1802 l8 22 389 0 c348 0 401 -2 493
-20z"/>
<path d="M795 2139 c-8 -46 -205 -1654 -205 -1674 0 -13 29 -15 220 -15 132 0
220 4 220 9 0 6 14 124 31 263 22 186 34 256 46 265 17 13 75 7 114 -13 50
-25 96 -92 135 -197 49 -135 77 -190 120 -237 70 -78 209 -117 369 -105 145
11 131 -2 139 133 4 64 9 136 12 158 l6 42 -51 7 c-69 9 -118 47 -165 129 -22
37 -60 85 -84 106 -47 40 -52 70 -12 70 14 0 34 22 66 70 26 39 49 70 52 70 3
0 11 -8 18 -17 12 -17 15 -16 43 12 49 49 97 140 121 228 33 119 34 304 3 403
-52 166 -157 253 -362 300 -50 12 -156 17 -448 21 l-382 5 -6 -33z m625 -273
c0 -28 5 -36 28 -44 98 -34 156 -163 132 -291 -31 -164 -140 -247 -335 -258
-70 -4 -93 -2 -102 8 -9 11 -3 79 23 284 18 149 34 271 34 271 0 9 35 12 45 4
9 -7 34 0 86 24 41 19 77 35 82 35 4 1 7 -14 7 -33z"/>
<path d="M1255 1758 c-6 -39 -44 -350 -48 -393 -2 -29 -2 -29 48 -26 167 8
265 100 265 246 0 68 -25 134 -61 159 -31 21 -39 20 -39 -4 0 -27 -5 -26 -80
15 -36 19 -68 35 -72 35 -4 0 -10 -15 -13 -32z"/>
</g>
</svg>
